<svg id="Calque_2" data-name="Calque 2" xmlns="http://www.w3.org/2000/svg" viewBox="0 0 2296 2296"><defs><style>.cls-1{fill:#99afc6;}.cls-2{fill:#2e4058;}.cls-3{fill:#084887;}.cls-4{fill:#ffc107;}.cls-5{fill:#1ab586;}</style></defs><title>tasks</title><path class="cls-1" d="M588.63,579.79c-62,0-112.19,44-112.19,98.22v956.45c0,54.25,50.23,98.22,112.19,98.22H905.71V579.79Z"/><rect class="cls-1" x="956.67" y="579.79" width="386.28" height="1152.88"/><path class="cls-1" d="M1709.7,580.77H1393V1733.66H1709.7c52,0,94.18-44,97.61-98.22V679C1803.88,624.74,1761.71,580.77,1709.7,580.77Z"/><rect class="cls-2" x="564.43" y="657.46" width="253.38" height="66.58" rx="33.29"/><rect class="cls-3" x="533.84" y="805.62" width="314.57" height="139.54" rx="69.77"/><rect class="cls-3" x="533.84" y="1016.88" width="314.57" height="139.54" rx="69.77"/><rect class="cls-3" x="533.84" y="1230.58" width="314.57" height="139.54" rx="69.77"/><rect class="cls-3" x="533.84" y="1444.7" width="314.57" height="139.54" rx="69.77"/><rect class="cls-4" x="992.61" y="805.62" width="314.57" height="139.54" rx="69.77"/><rect class="cls-5" x="1445.63" y="805.62" width="314.57" height="139.54" rx="69.77"/><rect class="cls-5" x="1444.66" y="1017.85" width="314.57" height="139.54" rx="69.77"/><path class="cls-5" d="M1704.49,1371.1H1499.66c-33.73,0-58.3-24.57-58.3-54.88v-29.79a54.88,54.88,0,0,1,54.88-54.88h204.83a54.88,54.88,0,0,1,54.87,54.88v29.79C1755.94,1346.53,1731.37,1371.1,1704.49,1371.1Z"/><rect class="cls-2" x="1023.17" y="657.95" width="253.38" height="66.58" rx="33.29"/><rect class="cls-2" x="1476.2" y="658.44" width="253.38" height="66.58" rx="33.29"/></svg>